<?xml version="1.0" encoding="UTF-8"?>
<svg width="40px" height="39px" viewBox="0 0 40 39" version="1.1" xmlns="http://www.w3.org/2000/svg" xmlns:xlink="http://www.w3.org/1999/xlink">
    <!-- Generator: Sketch 53.2 (72643) - https://sketchapp.com -->
    <title>f</title>
    <desc>Created with Sketch.</desc>
    <g id="Page-1" stroke="none" stroke-width="1" fill="none" fill-rule="evenodd">
        <g id="Artboard-Copy" transform="translate(-146.000000, -3301.000000)" fill="#FFFFFF" fill-rule="nonzero">
            <path d="M161.1475,3321.355 L164.0075,3321.355 L164.0075,3330.045 L167.5825,3330.045 L167.5825,3321.355 L171.1575,3321.355 L171.1575,3317.78 L167.5825,3317.78 L167.5825,3315.965 C167.5825,3315.67167 167.655833,3315.415 167.8025,3315.195 C167.949167,3314.975 168.114166,3314.865 168.2975,3314.865 L171.1575,3314.865 L171.1575,3311.345 L168.2975,3311.345 C167.124161,3311.345 166.115837,3311.80333 165.2725,3312.72 C164.429162,3313.63667 164.0075,3314.73666 164.0075,3316.02 L164.0075,3317.78 L161.1475,3317.78 L161.1475,3321.355 Z M166.1525,3340 C163.47582,3340 160.964178,3339.49584 158.6175,3338.4875 C156.270822,3337.47916 154.226675,3336.10418 152.485,3334.3625 C150.743325,3332.62082 149.368338,3330.57668 148.36,3328.23 C147.351662,3325.88332 146.8475,3323.37168 146.8475,3320.695 C146.8475,3318.01832 147.351662,3315.50668 148.36,3313.16 C149.368338,3310.81332 150.743325,3308.76001 152.485,3307 C154.226675,3305.23999 156.270822,3303.85584 158.6175,3302.8475 C160.964178,3301.83916 163.47582,3301.335 166.1525,3301.335 C168.82918,3301.335 171.340822,3301.83916 173.6875,3302.8475 C176.034178,3303.85584 178.078325,3305.23999 179.82,3307 C181.561675,3308.76001 182.936662,3310.81332 183.945,3313.16 C184.953338,3315.50668 185.4575,3318.01832 185.4575,3320.695 C185.4575,3323.37168 184.953338,3325.88332 183.945,3328.23 C182.936662,3330.57668 181.561675,3332.62082 179.82,3334.3625 C178.078325,3336.10418 176.034178,3337.47916 173.6875,3338.4875 C171.340822,3339.49584 168.82918,3340 166.1525,3340 Z" id="f"></path>
        </g>
    </g>
</svg>