<svg id="Layer_1" data-name="Layer 1" xmlns="http://www.w3.org/2000/svg" viewBox="0 0 158.54 158.54"><defs><style>.cls-1{fill:#ffffff;}</style></defs><title>inst</title><path class="cls-1" d="M321.29,377.1c-1-6.2-4.64-10.29-10.81-12-3.39-.93-6.88-.91-10.34-1-4.19-.11-8.38,0-12.56,0v0c-3.58,0-7.15-.09-10.72,0a85.09,85.09,0,0,0-10.84.76c-6.2,1-10.28,4.65-12,10.82a41.16,41.16,0,0,0-1,10.43c-.1,7.7-.13,15.4,0,23.09a75.6,75.6,0,0,0,.75,10.85c1,6.27,4.65,10.39,10.91,12.07a41.92,41.92,0,0,0,10.35,1c7.69.1,15.39.13,23.09,0a71.2,71.2,0,0,0,10.93-.76c6.23-1,10.33-4.66,12-10.89a41.53,41.53,0,0,0,1-10.35c.11-7.7.14-15.39,0-23.09A73.81,73.81,0,0,0,321.29,377.1Zm-33.93,43.15a21.64,21.64,0,1,1,21.81-21.44A21.57,21.57,0,0,1,287.36,420.25Zm22.7-39.06a5.15,5.15,0,0,1-5.11-5.11,5.08,5.08,0,0,1,5.17-5,5,5,0,0,1,5,5.07A5.07,5.07,0,0,1,310.06,381.19Z" transform="translate(-208.27 -319.34)"/><path class="cls-1" d="M287.65,384.56a14.05,14.05,0,1,0,13.94,14.15A14.08,14.08,0,0,0,287.65,384.56Z" transform="translate(-208.27 -319.34)"/><path class="cls-1" d="M287.54,319.34a79.27,79.27,0,1,0,79.26,79.27A79.27,79.27,0,0,0,287.54,319.34Zm42.07,92.57c-.07,4.45-.21,8.91-1.71,13.19-2.86,8.16-8.64,12.95-17,14.71-4.81,1-9.73.92-14.61.94-7.36,0-14.72,0-22.08-.07-4.45-.07-8.92-.21-13.2-1.71-8.15-2.87-12.93-8.65-14.68-17-1-4.82-.92-9.73-.94-14.62,0-7.32,0-14.65.07-22,.07-4.48.2-9,1.72-13.29,2.87-8.15,8.66-12.92,17-14.66,4.88-1,9.85-.88,14.8-.94,2.83,0,5.66,0,8.5,0v.05c4.43,0,8.87-.08,13.3,0s9,.21,13.29,1.73c8.11,2.86,12.87,8.64,14.63,16.94,1,4.81.92,9.73.94,14.62C329.71,397.19,329.72,404.55,329.61,411.91Z" transform="translate(-208.27 -319.34)"/></svg>