<?xml version="1.0" encoding="UTF-8"?>
<svg width="40px" height="39px" viewBox="0 0 40 39" version="1.1" xmlns="http://www.w3.org/2000/svg" xmlns:xlink="http://www.w3.org/1999/xlink">
    <!-- Generator: Sketch 53.2 (72643) - https://sketchapp.com -->
    <title>l</title>
    <desc>Created with Sketch.</desc>
    <g id="Page-1" stroke="none" stroke-width="1" fill="none" fill-rule="evenodd">
        <g id="Artboard-Copy" transform="translate(-146.000000, -3356.000000)" fill="#FFFFFF" fill-rule="nonzero">
            <path d="M166.18,3356.39 C168.85668,3356.39 171.368322,3356.89416 173.715,3357.9025 C176.061678,3358.91084 178.105825,3360.28582 179.8475,3362.0275 C181.589175,3363.76918 182.964162,3365.81332 183.9725,3368.16 C184.980838,3370.50668 185.485,3373.01832 185.485,3375.695 C185.485,3378.37168 184.980838,3380.88332 183.9725,3383.23 C182.964162,3385.57668 181.589175,3387.62082 179.8475,3389.3625 C178.105825,3391.10418 176.061678,3392.47916 173.715,3393.4875 C171.368322,3394.49584 168.85668,3395 166.18,3395 C163.50332,3395 160.991678,3394.49584 158.645,3393.4875 C156.298322,3392.47916 154.245009,3391.10418 152.485,3389.3625 C150.724991,3387.62082 149.340838,3385.57668 148.3325,3383.23 C147.324162,3380.88332 146.82,3378.37168 146.82,3375.695 C146.82,3373.01832 147.324162,3370.50668 148.3325,3368.16 C149.340838,3365.81332 150.724991,3363.76918 152.485,3362.0275 C154.245009,3360.28582 156.298322,3358.91084 158.645,3357.9025 C160.991678,3356.89416 163.50332,3356.39 166.18,3356.39 Z M176.63,3370.14 C176.263331,3370.28667 175.896668,3370.40583 175.53,3370.4975 C175.163331,3370.58917 174.778335,3370.67167 174.375,3370.745 C174.778335,3370.48833 175.126665,3370.17667 175.42,3369.81 C175.713335,3369.44333 175.951666,3369.04 176.135,3368.6 C175.731665,3368.78333 175.319169,3368.96667 174.8975,3369.15 C174.475831,3369.33333 174.026669,3369.46167 173.55,3369.535 C173.219998,3369.13166 172.816669,3368.82 172.34,3368.6 C171.863331,3368.38 171.33167,3368.27 170.745,3368.27 C169.681661,3368.27 168.765004,3368.655 167.995,3369.425 C167.224996,3370.195 166.84,3371.12999 166.84,3372.23 C166.84,3372.45 166.876666,3372.74333 166.95,3373.11 C165.299992,3373.03667 163.787507,3372.63334 162.4125,3371.9 C161.037493,3371.16666 159.855005,3370.19501 158.865,3368.985 C158.534998,3369.60834 158.37,3370.26833 158.37,3370.965 C158.37,3372.43167 158.938328,3373.51333 160.075,3374.21 C159.414997,3374.21 158.828336,3374.06333 158.315,3373.77 L158.315,3373.825 C158.315,3374.77834 158.60833,3375.6125 159.195,3376.3275 C159.78167,3377.0425 160.514996,3377.49167 161.395,3377.675 C161.248333,3377.71167 161.092501,3377.73917 160.9275,3377.7575 C160.762499,3377.77583 160.570001,3377.785 160.35,3377.785 C160.203333,3377.785 159.983335,3377.74833 159.69,3377.675 C159.910001,3378.445 160.349997,3379.08666 161.01,3379.6 C161.670003,3380.11334 162.439996,3380.38833 163.32,3380.425 C161.92666,3381.52501 160.313342,3382.075 158.48,3382.075 L157.545,3382.075 C158.388338,3382.625 159.323328,3383.05583 160.35,3383.3675 C161.376672,3383.67917 162.439994,3383.835 163.54,3383.835 C165.336676,3383.835 166.93166,3383.49584 168.325,3382.8175 C169.71834,3382.13916 170.882495,3381.26834 171.8175,3380.205 C172.752505,3379.14166 173.458331,3377.95001 173.935,3376.63 C174.411669,3375.30999 174.65,3373.99001 174.65,3372.67 L174.65,3372.175 C175.053335,3371.88167 175.419998,3371.56084 175.75,3371.2125 C176.080002,3370.86416 176.373332,3370.50667 176.63,3370.14 Z" id="l"></path>
        </g>
    </g>
</svg>