<?xml version="1.0" encoding="UTF-8"?>
<svg width="242px" height="22px" viewBox="0 0 242 22" version="1.1" xmlns="http://www.w3.org/2000/svg" xmlns:xlink="http://www.w3.org/1999/xlink">
    <!-- Generator: Sketch 53.2 (72643) - https://sketchapp.com -->
    <title>ADAMTRACZYK</title>
    <desc>Created with Sketch.</desc>
    <g id="Page-1" stroke="none" stroke-width="1" fill="none" fill-rule="evenodd">
        <g id="Artboard-Copy" transform="translate(-142.000000, -40.000000)" fill="#FFFFFF" fill-rule="nonzero">
            <path d="M158.325453,61 L157.545453,58.42 L149.865453,58.42 L149.085453,61 L142.515453,61 L149.895453,40.99 L157.515453,40.99 L164.895453,61 L158.325453,61 Z M153.705453,46.33 L151.425453,53.38 L155.985453,53.38 L153.705453,46.33 Z M166.384544,61 L166.384544,40.99 L175.324544,40.99 C181.624544,40.99 186.304544,44.59 186.304544,50.98 C186.304544,57.37 181.624544,61 175.354544,61 L166.384544,61 Z M172.444544,55.72 L175.324544,55.72 C178.354544,55.72 180.154544,53.5 180.154544,50.98 C180.154544,48.28 178.594544,46.27 175.354544,46.27 L172.444544,46.27 L172.444544,55.72 Z M201.623635,61 L200.843635,58.42 L193.163635,58.42 L192.383635,61 L185.813635,61 L193.193635,40.99 L200.813635,40.99 L208.193635,61 L201.623635,61 Z M197.003635,46.33 L194.723635,53.38 L199.283635,53.38 L197.003635,46.33 Z M227.382726,61 L227.382726,48.37 L222.912726,61 L220.212726,61 L215.742726,48.37 L215.742726,61 L209.682726,61 L209.682726,40.99 L218.052726,40.99 L221.562726,51.19 L225.072726,40.99 L233.442726,40.99 L233.442726,61 L227.382726,61 Z M249.440909,61 L249.440909,46.27 L244.070909,46.27 L244.070909,40.99 L260.840909,40.99 L260.840909,46.27 L255.500909,46.27 L255.500909,61 L249.440909,61 Z M274.42,61 L271.66,54.58 L269.47,54.58 L269.47,61 L263.41,61 L263.41,40.99 L274.09,40.99 C278.77,40.99 281.29,44.11 281.29,47.86 C281.29,51.31 279.28,53.14 277.69,53.92 L281.32,61 L274.42,61 Z M275.14,47.77 C275.14,46.69 274.18,46.03 273.16,46.03 L269.47,46.03 L269.47,49.54 L273.16,49.54 C274.18,49.54 275.14,48.88 275.14,47.77 Z M297.809091,61 L297.029091,58.42 L289.349091,58.42 L288.569091,61 L281.999091,61 L289.379091,40.99 L296.999091,40.99 L304.379091,61 L297.809091,61 Z M293.189091,46.33 L290.909091,53.38 L295.469091,53.38 L293.189091,46.33 Z M314.748182,61.36 C308.628182,61.36 303.888182,57.16 303.888182,51.01 C303.888182,44.83 308.628182,40.66 314.748182,40.66 C320.148182,40.66 322.788182,43.72 323.988182,46.48 L318.768182,48.91 C318.258182,47.35 316.698182,46 314.748182,46 C311.988182,46 310.038182,48.22 310.038182,51.01 C310.038182,53.8 311.988182,56.02 314.748182,56.02 C316.698182,56.02 318.258182,54.67 318.768182,53.11 L323.988182,55.51 C322.818182,58.18 320.148182,61.36 314.748182,61.36 Z M325.747274,61 L325.747274,56.2 L333.367274,46.27 L325.747274,46.27 L325.747274,40.99 L341.377274,40.99 L341.377274,45.76 L333.727274,55.72 L341.587274,55.72 L341.587274,61 L325.747274,61 Z M350.036365,61 L350.036365,53.05 L342.536365,40.99 L349.346365,40.99 L353.066365,47.74 L356.726365,40.99 L363.536365,40.99 L356.096365,53.05 L356.096365,61 L350.036365,61 Z M376.695456,61 L372.195456,53.95 L371.085456,55.45 L371.085456,61 L365.025456,61 L365.025456,40.99 L371.085456,40.99 L371.085456,48.49 L376.335456,40.99 L383.745456,40.99 L376.185456,50.29 L384.075456,61 L376.695456,61 Z" id="ADAMTRACZYK"></path>
        </g>
    </g>
</svg>