<?xml version="1.0" encoding="UTF-8"?>
<svg width="238px" height="177px" viewBox="0 0 238 177" version="1.1" xmlns="http://www.w3.org/2000/svg" xmlns:xlink="http://www.w3.org/1999/xlink">
    <!-- Generator: Sketch 53.2 (72643) - https://sketchapp.com -->
    <title>“</title>
    <desc>Created with Sketch.</desc>
    <g id="Page-1" stroke="none" stroke-width="1" fill="none" fill-rule="evenodd" opacity="0.05">
        <g id="Artboard-Copy" transform="translate(-145.000000, -585.000000)" fill="#FFFFFF" fill-rule="nonzero">
            <path d="M208.636364,585 L245.8,614.922636 C229.509091,622.022923 206.090909,644.338109 199.472727,663.610315 C202.018182,662.595989 207.109091,661.581662 212.709091,661.581662 C237.145455,661.581662 257,680.346705 257,708.747851 C257,738.163324 232.563636,762 204.054545,762 C173,762 145,738.163324 145,696.575931 C145,651.945559 168.927273,612.893983 208.636364,585 Z M334.636364,585 L371.8,614.922636 C355.509091,622.022923 332.090909,644.338109 325.472727,663.610315 C328.018182,662.595989 333.109091,661.581662 338.709091,661.581662 C363.145455,661.581662 383,680.346705 383,708.747851 C383,738.163324 358.563636,762 330.054545,762 C299,762 271,738.163324 271,696.575931 C271,651.945559 294.927273,612.893983 334.636364,585 Z" id="“"></path>
        </g>
    </g>
</svg>